<svg id="Layer_1" data-name="Layer 1" xmlns="http://www.w3.org/2000/svg" viewBox="0 0 1110.65 771.66"><title>adsArtboard 1</title><path d="M12,428.39C29.56,500.6,66.76,563,125.56,593.27c122.19,62.88,397.77,30.45,603.43-6.78,106.33-19.25,199.88-72.35,267.81-147.16Z" fill="#ac5c68" opacity="0.1" style="isolation:isolate"/><path d="M1090.5,88.51H977.66a9.38,9.38,0,1,1-.61-18.75c.2,0,.41,0,.61,0h19.5A9.38,9.38,0,1,1,996.55,51H983.23a9.38,9.38,0,0,1-.61-18.75h59.51c-13.07-5.84-28.3-10-46-12.17C835.59.26,778.25,13.38,758,26.83c-25,16.64-52.8,28.88-82.55,34.78C576.38,81.26,391.07,104.9,223.11,54,139.63,28.83,77.59,71.52,40.4,142.91H1110.1c-1.4-20.75-5.58-39.91-13.25-56.68A9.89,9.89,0,0,1,1090.5,88.51Z" fill="#ac5c68" opacity="0.1" style="isolation:isolate"/><path d="M688.32,316.29l-1.47-.09-15.35-.87-147.18-8.27-15.89-.9L274.09,293l-65.68-3.69-10.4-.58-9.23-.52L2.41,277.68a459.05,459.05,0,0,0,4.38,126l156.8,5.51,12.42.45,2.2.07,74.38,2.62,4,.13,8.57.3,75,2.64,10.29.37L386.32,417H387l5.27.19,17.95.63h0l15.75.55,30,1.05h.64l2.67.09,2.84.1h.62l47.81,1.68,13.4.48h.56L531,422h1.68l5.68.2,17.3.62h0l6.51.22,8.34.29h.31l11.46.41,33.14,1.17,9.12.31h1l44.18,1.55,25.65.9,32,1.32,5.12.18,8.27.29,30.06,1.06,226.75,8a446.11,446.11,0,0,0,68.83-100.92ZM262,386.29a10,10,0,0,1-6.49-2.4h0a9.32,9.32,0,0,1-2.06-2.49,9,9,0,0,1,.41-9.6h0a10.33,10.33,0,0,1,1.09-1.29,9.86,9.86,0,0,1,7.05-2.92h19.5a9.39,9.39,0,0,1-.87-18.76H267.5a6.91,6.91,0,0,1-.91,0,9.36,9.36,0,1,1,.91-18.7H380.32a9.38,9.38,0,1,1,0,18.7h14a9.39,9.39,0,0,1,.87,18.76q-.44,0-.87,0h-19.5a9.38,9.38,0,0,1,.87,18.74h-.87Z" fill="#ac5c68" opacity="0.1" style="isolation:isolate"/><path d="M1110.14,143.57,331.78,161.76l-85.55,2L28.46,168.83c-13.14,32.54-21.88,69.3-25.9,107.4H1091.19a429.62,429.62,0,0,0,15.71-68.4C1110.14,185.39,1111.45,163.74,1110.14,143.57Zm-888,82.87h-19.5a9.59,9.59,0,0,1,9.76,9.37v.57a9.37,9.37,0,0,1-4.33,7.23,10,10,0,0,1-5.41,1.58H89.82a9.38,9.38,0,1,1-.61-18.75h20.11a9.38,9.38,0,1,1-.61-18.75H95.4a9.38,9.38,0,1,1-.61-18.75H208.24a9.38,9.38,0,0,1,.61,18.75h13.32a10,10,0,0,1,4.63,1.14,9.34,9.34,0,0,1,5.13,8.23,9.6,9.6,0,0,1-9.76,9.38Z" fill="#ac5c68" opacity="0.1" style="isolation:isolate"/><path d="M163,584.13s19.25-3.08,30.8,10.53c0,0-8.47,6.67-26.69-2.57Z" fill="#ac5c68"/><path d="M160.93,583.83s-12.28,15.15-6.25,32c0,0,10-4,11.1-24.42Z" fill="#ac5c68"/><path d="M149.9,559s7.7-14.12,38.5,5.64c0,0-4.11,9.5-17.71,8.73S153.49,566.42,149.9,559Z" fill="#ac5c68"/><path d="M147.91,558s-16-1.82-17.52,34.74c0,0,10.13,2.11,17.32-9.46S151.93,565.18,147.91,558Z" fill="#ac5c68"/><path d="M138.61,528.83s9-24.9,41.58-7.19c0,0-7.45,22.85-38.25,15.66Z" fill="#ac5c68"/><path d="M128.59,491.57s16.95-25.15,47-1.8c0,0-10.53,23.62-44.41,10.79Z" fill="#ac5c68"/><path d="M125,456.15s19.77-23.1,49.54,0c0,0-18.74,20.28-49.54,5.9Z" fill="#ac5c68"/><path d="M121.92,421.76s20-24.13,48.51-1.29c0,0-22.58,21.31-48.51,6.93Z" fill="#ac5c68"/><path d="M123.72,391.21s21-31.06,47.74-10c0,0-22.59,26.69-47.74,15.91Z" fill="#ac5c68"/><path d="M128.59,355.53s22.34-30.8,48.26-7.18c0,0-26.44,26.69-48.26,12.83Z" fill="#ac5c68"/><path d="M136,323.64s26.44-28.94,49.54-17.39c0,0-27.55,30.74-50.65,25.09Z" fill="#ac5c68"/><path d="M145.32,293.42s30.5-35.42,48.21-23.59c0,0-22.47,27.47-50.45,30.29Z" fill="#ac5c68"/><path d="M158.62,258.35s26.7-28.94,46.21-21.76c0,0-22.85,30-49.8,30.8Z" fill="#ac5c68"/><path d="M170.69,225.55s29.52-27.72,42.35-22.84c0,0-21.3,30.8-43.63,29Z" fill="#ac5c68"/><path d="M182.5,195.27s25.41-33.11,39.27-30.55c0,0-15.4,29.52-39.27,33.88Z" fill="#ac5c68"/><path d="M195.32,154.44s22.46-25.39,34.59-25.33c0,0-17.73,33.9-35.51,33.61Z" fill="#ac5c68"/><path d="M202.9,127.25l21.69-52.88s1.09,47.8-24.45,62.69Z" fill="#ac5c68"/><path d="M211.71,68.94s3.61-44.11,1.28-47.75c0,0,15.51,36.71-1.43,67.25Z" fill="#ac5c68"/><path d="M137.77,528.2s-22.5-13.94-37.06,20.18c0,0,20,13.29,39.7-11.47Z" fill="#ac5c68"/><path d="M127.88,490.15s-27.6-12.58-41,23c0,0,21.31,14.63,43.49-14Z" fill="#ac5c68"/><path d="M123.72,458.27s-19.77-23.1-49.54,0c0,0,18.74,20.27,49.54,5.9Z" fill="#ac5c68"/><path d="M121.25,421.76s-20-24.13-48.51-1.29c0,0,22.58,21.31,48.51,6.93Z" fill="#ac5c68"/><path d="M123.72,392.09s-14-34.79-44.57-19.83c0,0,16.47,30.85,43.33,25.6Z" fill="#ac5c68"/><path d="M130.32,355.36s-13.95-35.39-44.94-19c0,0,19,32.44,43.54,24.45Z" fill="#ac5c68"/><path d="M139,323.83s-5.54-38.8-31.13-42.27c0,0,5.44,40.91,27.71,49.26Z" fill="#ac5c68"/><path d="M145.93,293.48s-2.14-46.72-23.37-48.37c0,0,.72,35.48,21,55Z" fill="#ac5c68"/><path d="M160.82,257s-6.33-38.88-26.57-43.63c0,0,2.51,37.65,24.58,53.14Z" fill="#ac5c68"/><path d="M173.09,225.83s-.21-40.5-12.59-46.45c0,0-7.67,36.66,9,51.62Z" fill="#ac5c68"/><path d="M183.44,194.83s-1.73-41.71-14.55-47.58c0,0-4.38,33,12.63,50.31Z" fill="#ac5c68"/><path d="M197.1,157.76s-.08-33.9-9.22-41.87c0,0-9.1,37.15,4.44,48.69Z" fill="#ac5c68"/><path d="M201.82,125.58l-8.89-56.46s-12.1,46.26,9.32,66.64Z" fill="#ac5c68"/><path d="M203.56,69.47s-22.84-37.94-22.37-42.19c0,0,2.42,39.77,31.18,59.6Z" fill="#ac5c68"/><path d="M206.24,58.27S184.68,4.36,174.92,0c0,0,30.8,15.66,33.12,56.73Z" fill="#ac5c68"/><path d="M194.32,163l-1.47-.45C211,103.25,215.58,65.37,205.63,55.94l1.06-1.12C217.19,64.83,212.91,102.24,194.32,163Z" fill="#444053"/><path d="M144.17,301.92l-2.18-.77c1.93-5.44,4-11,6.2-16.4,19-47.33,35.16-91.36,45.52-125.17l1.9-1c-10.39,33.87-26.29,79.59-45.29,127C148.16,291,146.09,296.51,144.17,301.92Z" fill="#444053"/><path d="M190.08,628.54c-.3-.33-29.79-33.53-50.35-90.23a334,334,0,0,1-19.88-103.38c-1.41-44.1,7.85-93.38,23.71-138.1l1.72,2c-35.6,100.43-21.46,186.49-2.7,238.3,20.35,56.18,49.5,89,49.79,89.35Z" fill="#444053"/><path d="M217.07,540.25s9.08-1.45,14.53,5c0,0-4,3.15-12.59-1.21Z" fill="#ac5c68"/><path d="M216.1,540.11s-5.8,7.15-3,15.08c0,0,4.73-1.9,5.24-11.52Z" fill="#ac5c68"/><path d="M210.89,528.38s3.63-6.66,18.17,2.67c0,0-1.94,4.48-8.36,4.12S212.59,531.9,210.89,528.38Z" fill="#ac5c68"/><path d="M210,527.9s-7.54-.86-8.27,16.4c0,0,4.78,1,8.18-4.47S211.85,531.31,210,527.9Z" fill="#ac5c68"/><path d="M205.56,514.14s4.24-11.75,19.62-3.39c0,0-3.51,10.78-18,7.39Z" fill="#ac5c68"/><path d="M200.84,496.58s8-11.87,22.16-.85c0,0-5,11.14-21,5.08Z" fill="#ac5c68"/><path d="M199.14,479.83s9.33-10.9,23.38,0c0,0-8.84,9.57-23.38,2.79Z" fill="#ac5c68"/><path d="M197.69,463.63s9.45-11.39,22.89-.61c0,0-10.66,10.06-22.89,3.27Z" fill="#ac5c68"/><path d="M198.54,449.22s9.93-14.66,22.52-4.73c0,0-10.65,12.6-22.52,7.51Z" fill="#ac5c68"/><path d="M200.84,432.38s10.53-14.53,22.77-3.39c0,0-12.48,12.6-22.77,6Z" fill="#ac5c68"/><path d="M204.32,417.33s12.47-13.66,23.38-8.21c0,0-13,14.51-23.91,11.84Z" fill="#ac5c68"/><path d="M208.71,403.07s14.41-16.72,22.77-11.15c0,0-10.61,13-23.81,14.3Z" fill="#ac5c68"/><path d="M215,386.52s12.6-13.66,21.81-10.27c0,0-10.78,14.17-23.5,14.54Z" fill="#ac5c68"/><path d="M220.7,371s13.93-13.08,20-10.78c0,0-10.06,14.54-20.59,13.69Z" fill="#ac5c68"/><path d="M226.32,356.75s12-15.62,18.53-14.41c0,0-7.26,13.93-18.53,16Z" fill="#ac5c68"/><path d="M232.32,337.49s10.6-12,16.32-12c0,0-8.36,16-16.76,15.86Z" fill="#ac5c68"/><path d="M235.9,324.65l10.24-24.95s.51,22.56-11.54,29.58Z" fill="#ac5c68"/><path d="M240.06,297.14s1.69-20.84.6-22.53c0,0,7.32,17.32-.67,31.73Z" fill="#ac5c68"/><path d="M205.17,513.83s-10.62-6.58-17.49,9.52c0,0,9.44,6.27,18.73-5.41Z" fill="#ac5c68"/><path d="M200.5,495.91s-13-5.94-19.34,10.86c0,0,10.06,6.9,20.52-6.62Z" fill="#ac5c68"/><path d="M198.54,480.83s-9.33-10.9-23.38,0c0,0,8.84,9.57,23.38,2.79Z" fill="#ac5c68"/><path d="M197.37,463.63s-9.45-11.39-22.89-.61c0,0,10.66,10.06,22.89,3.27Z" fill="#ac5c68"/><path d="M198.54,449.63s-6.63-16.42-21-9.36c0,0,7.77,14.56,20.45,12.08Z" fill="#ac5c68"/><path d="M201.67,432.3s-6.58-16.7-21.21-9c0,0,9,15.31,20.55,11.54Z" fill="#ac5c68"/><path d="M205.75,417.42s-2.61-18.31-14.68-19.95c0,0,2.56,19.3,13.07,23.25Z" fill="#ac5c68"/><path d="M209,403.1s-1-22-11-22.83c0,0,.34,16.75,9.9,26Z" fill="#ac5c68"/><path d="M216,385.89s-3-18.34-12.54-20.59c0,0,1.19,17.77,11.6,25.08Z" fill="#ac5c68"/><path d="M221.83,371.18s-.1-19.11-5.94-21.92c0,0-3.62,17.3,4.25,24.36Z" fill="#ac5c68"/><path d="M226.72,356.54s-.82-19.68-6.87-22.45c0,0-2.07,15.57,6,23.74Z" fill="#ac5c68"/><path d="M233.16,339.05s0-16-4.35-19.75c0,0-4.29,17.53,2.1,23Z" fill="#ac5c68"/><path d="M235.39,323.83l-4.19-26.64s-5.71,21.82,4.39,31.44Z" fill="#ac5c68"/><path d="M236.21,297.39s-10.78-17.91-10.56-19.91c0,0,1.15,18.77,14.72,28.13Z" fill="#ac5c68"/><path d="M237.48,292.1s-10.16-25.43-14.78-27.49c0,0,14.53,7.39,15.62,26.77Z" fill="#ac5c68"/><path d="M231.83,341.54l-.7-.21c8.59-28,10.73-45.87,6-50.33l.5-.52C242.64,295.2,240.63,312.83,231.83,341.54Z" fill="#444053"/><path d="M208.19,407.08l-1-.36c.91-2.57,1.89-5.17,2.92-7.74,9-22.34,16.59-43.12,21.49-59.07l.89-.45c-4.9,16-12.39,37.56-21.37,59.93C210.07,401.94,209.09,404.53,208.19,407.08Z" fill="#444053"/><path d="M229.85,561.21c-.14-.16-14.06-15.82-23.76-42.58a157.65,157.65,0,0,1-9.38-48.8c-.67-20.82,3.7-44.07,11.19-65.18l.81,1c-16.8,47.39-10.12,88-1.27,112.45,9.6,26.51,23.35,42,23.49,42.17Z" fill="#444053"/><path d="M873,579.1c-1.27,7.62-8.88,33-8.88,33s-11.42,38-14.59,38.73-152.21-3.22-158.58,0-42.5.07-42.5.07-22.2,1.84-33,5-69.14,8.24-72,8.24-28.59-10.15-33.17-8.88-31.85-3.17-38.19-1.27-32.36-10.14-36.16-8.24-21.57,3.17-26.64,5.71-133.84-3.81-136.38-3.17c-.41.1-2,.38-4.26.79-12,2.1-44.58,7.45-44.58,7.45l-20.3-7s-17.76-1.26-23.47-.63-31.7-24.07-31.7-24.07-2.54-12.06,0-15.23,0-19,0-19a69.23,69.23,0,0,1,7-30.45c7.61-15.22,12.05-37.42,12.05-37.42s5.67-28,12.67-34.33,32.35-6.35,44.4-4.44l1.05.15c16,2.27,113.36,12.52,122.64,11.9,9.52-.64,44.4,1.27,49.48-.64s121.16,3.81,121.16,3.81,19.66-7,24.42-8.25,20.61-34.88,25.69-38.69c1.61-1.21,3-2.42,4.39-3.69a58.2,58.2,0,0,1,12.73-9c9.52-5.07,34.26,15.86,30.45,24.74-3.42,8-5.82,8.28-8.11,9.18a7.51,7.51,0,0,0-.77.34c-2.54,1.27-12,18.39-12,18.39s125-3.17,138.92-4.44,55.82,0,60.26-3.17,48.2,5.71,48.2,5.71l22.84,48.21S874.32,571.49,873,579.1Z" fill="#f8bda5"/><path d="M268.67,649c-12,2.1-44.58,7.45-44.58,7.45l-20.3-7s-17.76-1.26-23.47-.63-31.72-24-31.72-24-2.54-12.06,0-15.23,0-19,0-19a69.23,69.23,0,0,1,7-30.45c7.61-15.22,12.05-37.42,12.05-37.42s5.67-28,12.67-34.33,32.35-6.35,44.4-4.44l1.05.15c25.55,39.42,67.41,107.21,68.72,130.52C295.32,629.53,282.84,640.94,268.67,649Z" fill="#ffccb2"/><path d="M380.76,587.56s-8.24,2.33-20.3.43-27.27,3.17-27.27,3.17" fill="none" stroke="#000" stroke-miterlimit="10" opacity="0.1" style="isolation:isolate"/><path d="M411.84,591.16s9.52,2.53,34.89,3.17,28.55-1.9,40,0,23.59,3.17,23.59,3.17" fill="none" stroke="#000" stroke-miterlimit="10" opacity="0.1" style="isolation:isolate"/><path d="M337,602.57s34.89-6.34,50.12,0,45-1.9,49.47,0,27.28,2.35,34.26,2.45,11.41,1.8,20.3,0,44.4.82,44.4.82" fill="none" stroke="#000" stroke-miterlimit="10" opacity="0.1" style="isolation:isolate"/><path d="M490.5,551.44s18.4-4.83,32.35,0,41.87,1,56.46,3.56,57.08,10.78,61.53,5.71" fill="none" stroke="#000" stroke-miterlimit="10" opacity="0.1" style="isolation:isolate"/><path d="M575.5,573.4s12.69-3.18,24.74,0,34.25,6.34,40.6,4.44A208,208,0,0,1,665.57,572c10.15-1.77,37.43-11.85,47.58-9.66s22.2-4.44,33-6.52,15.86-2.36,29.18,0,20.3,8.77,22.2,6.52" fill="none" stroke="#000" stroke-miterlimit="10" opacity="0.1" style="isolation:isolate"/><path d="M736,533.43c1.91-1.27,10.79,5.71,29.18,6.35s35.52-6.5,35.52-6.5-1.9-2.06,9.52,0S866,538.51,866,538.51" fill="none" stroke="#000" stroke-miterlimit="10" opacity="0.1" style="isolation:isolate"/><path d="M813.37,515s-22.83-6.35-32.35,0-19.66.63-22.83,0-31.09-.57-39.33-2.82-32.35,2.89-32.35,2.89-30.45-1.77-41.19-.28-35.53,6.77-37.43,3.17-22.2-9.74-29.18-6.35" fill="none" stroke="#000" stroke-miterlimit="10" opacity="0.1" style="isolation:isolate"/><path d="M565.67,522.65s17.44-3.17,23.15,0,26,0,26,0,16.49,3.17,19,4.44" fill="none" stroke="#000" stroke-miterlimit="10" opacity="0.1" style="isolation:isolate"/><path d="M745.5,506.16s7.61-2.54,24.1,0A90.06,90.06,0,0,0,801,505s16.81-1.52,25.06,2,24.5-1.17,24.5-1.17" fill="none" stroke="#000" stroke-miterlimit="10" opacity="0.1" style="isolation:isolate"/><path d="M268.49,544.22s5.07-3.81,23.47,0,27.27-1.69,27.27-1.69-7.61-.43,8.88,0,25.38-6.44,25.38-6.44" fill="none" stroke="#000" stroke-miterlimit="10" opacity="0.1" style="isolation:isolate"/><path d="M251.32,532.37s-.63-6.78,17.13,0,27.91,3.72,27.91,3.72a56.38,56.38,0,0,1,22.83-3c12.69,1,29.82,0,29.82,0" fill="none" stroke="#000" stroke-miterlimit="10" opacity="0.1" style="isolation:isolate"/><path d="M239.32,515s3.8-4.53,20.93,0,22.84,0,22.84,0,17.12.23,27.91,4.28" fill="none" stroke="#000" stroke-miterlimit="10" opacity="0.1" style="isolation:isolate"/><path d="M261.51,508.37s5.07-.32,17.13,0,24.74,0,24.74,0" fill="none" stroke="#000" stroke-miterlimit="10" opacity="0.1" style="isolation:isolate"/><path d="M213.32,587.56s-9.51-7.82-3.17-12.26,15.17.53,15.17,3.11v15.92s-27.91,10.15-27.91,3.17,8.25-39.61,11.42-41.69,10.78-22.18,13.32-15,17.17,50.35,17.17,50.35a24.94,24.94,0,0,1-12.7,14.67c-10.15,5-46.94,5.43-46.3-3s10.78-51.36,10.78-51.36,17.13-46.36,26.64-35.36,14,30.23,21.57,38.06,24.1,37.84,17.13,51.7S199.32,633,199.32,633s-40-9.51-31.72-41.86,13.32-86.91,25.37-90.08,24.11-7,34.26,0,30.44,49.67,34.25,53.06,24.74,35.18,20.93,45.62S257,640.63,245.62,645.07s-38.06-4.44-38.06-4.44" fill="none" stroke="#000" stroke-miterlimit="10" opacity="0.1" style="isolation:isolate"/><path d="M678.26,591.16s24.1-.64,29.81,0,17.13-14.71,23.47-12.75,8.88,13,20.3,11,40.6-4.65,40.6-4.65,15.86,1.16,26.64,0,19-.11,24.74,0,22.2,0,22.2,0l5,2.85" fill="none" stroke="#000" stroke-miterlimit="10" opacity="0.1" style="isolation:isolate"/><path d="M696,571.73a170.18,170.18,0,0,1,24.11,0c10.78,1,45.67-6.23,60.89-5.45s22.84-4.87,29.81-4,12.06,4.68,22.84,4.7,37.38-4.7,37.38-4.7" fill="none" stroke="#000" stroke-miterlimit="10" opacity="0.1" style="isolation:isolate"/><path d="M373.79,624.83s44.4,5.7,59,0,22.2-7.62,32.35-5.71,7-5.24,25.37-.72,50.75,6.72,59,3.72,66,9.68,66,9.68" fill="none" stroke="#000" stroke-miterlimit="10" opacity="0.1" style="isolation:isolate"/><path d="M445.46,636.83s18.4,1.9,30.45,3.17,67.24,5.71,78.66,0,82.46-.16,82.46-.16,15.86,1.1,25.37,0,33.62-3,33.62-3" fill="none" stroke="#000" stroke-miterlimit="10" opacity="0.1" style="isolation:isolate"/><path d="M616.73,464.29c-3.42,8-5.82,8.28-8.11,9.18-11.46-5.19-26.18-17.17-35.07-24.92a58.2,58.2,0,0,1,12.73-9C595.8,434.48,620.54,455.41,616.73,464.29Z" fill="#ffccb2"/><path d="M303.32,652.39V627.65L312.16,640s12-75.75,15.22-72.28,0,65,0,65l7.61-5.08,3.81,11.09s21.57-33.06,23.47-28.73-4.44,28.73-4.44,28.73l31.72-64.6s-10.79,55.42-7,58.59,18.39-9.52,20.93-5.08S380,655.43,380,655.43Z" fill="#ac5c68"/><path d="M707.44,650.83,717,626.09s7.62,10.76,9.52,11.09,12-6,12-6V603.24l15.86,30.92,7.61-3,3.17-12.54,3.81,7.46s28.54-71.72,44.4-64.72l-22.83,61.55,22.83-17.08S803.22,634,801,634.15s20-3,20-3l-7.63,19.68Z" fill="#ac5c68"/><ellipse cx="119.15" cy="766.06" rx="33.61" ry="4.61" fill="#ac5c68" opacity="0.1" style="isolation:isolate"/><path d="M121.32,718.73s4.51,5.89-2.07,14.78-12,16.39-9.82,21.94c0,0,9.93-16.52,18-16.75S130.22,728.66,121.32,718.73Z" fill="#ac5c68"/><path d="M121.32,718.73a7.44,7.44,0,0,1,.92,1.85c7.89,9.26,12.09,17.91,4.51,18.12-7.06.21-15.53,12.83-17.56,16,.07.24.15.49.24.73,0,0,9.93-16.52,18-16.75S130.22,728.66,121.32,718.73Z" opacity="0.1" style="isolation:isolate"/><path d="M129.7,726.23c0,2.08-.24,3.76-.52,3.76s-.52-1.68-.52-3.76.29-1.09.57-1.09S129.7,724.16,129.7,726.23Z" fill="#ffd037"/><path d="M132.57,728.71c-1.82,1-3.41,1.59-3.55,1.34s1.23-1.26,3-2.25,1.1-.27,1.24,0S134.39,727.72,132.57,728.71Z" fill="#ffd037"/><path d="M97.54,718.73s-4.5,5.89,2.08,14.78,12,16.39,9.81,21.94c0,0-9.93-16.52-18-16.75S88.65,728.66,97.54,718.73Z" fill="#ac5c68"/><path d="M97.54,718.73a7.44,7.44,0,0,0-.92,1.85c-7.89,9.26-12.09,17.91-4.51,18.12,7.06.21,15.53,12.83,17.56,16a4.79,4.79,0,0,1-.24.73s-9.93-16.52-18-16.75S88.65,728.66,97.54,718.73Z" opacity="0.1" style="isolation:isolate"/><path d="M89.17,726.23c0,2.08.23,3.76.52,3.76s.52-1.68.52-3.76-.29-1.09-.58-1.09S89.17,724.16,89.17,726.23Z" fill="#ffd037"/><path d="M86.32,728.71c1.82,1,3.4,1.59,3.54,1.34s-1.23-1.26-3-2.25-1.1-.27-1.23,0S84.48,727.72,86.32,728.71Z" fill="#ffd037"/><path d="M90.6,754.67s12.59-.38,16.39-3.08,19.36-5.93,20.3-1.6,18.92,21.55,4.71,21.67-33-2.22-36.81-4.53S90.6,754.67,90.6,754.67Z" fill="#a8a8a8"/><path d="M132.25,770.15c-14.21.11-33-2.22-36.81-4.52-2.88-1.76-4-8.06-4.42-11H90.6s.8,10.16,4.59,12.46,22.6,4.64,36.81,4.53c4.1,0,5.52-1.5,5.44-3.66C136.87,769.31,135.32,770.12,132.25,770.15Z" opacity="0.2" style="isolation:isolate"/><path d="M585.92,452.29s7.58,12.53,14.89,12,11.23-6.27,8.88-9.92-18-10.45-18-10.45" fill="none" stroke="#000" stroke-miterlimit="10" opacity="0.1" style="isolation:isolate"/><path d="M591.41,451s3.81,8.88,6.74,5.22S591.41,451,591.41,451Z" fill="none" stroke="#000" stroke-miterlimit="10" opacity="0.1" style="isolation:isolate"/><ellipse cx="387.1" cy="668.67" rx="37.95" ry="5.82" fill="#ac5c68" opacity="0.1" style="isolation:isolate"/><ellipse cx="934.43" cy="676.59" rx="37.95" ry="5.82" fill="#ac5c68" opacity="0.1" style="isolation:isolate"/><ellipse cx="840.95" cy="730.51" rx="37.95" ry="5.82" fill="#ac5c68" opacity="0.1" style="isolation:isolate"/><ellipse cx="268.49" cy="712.99" rx="49.23" ry="10.61" fill="#ac5c68" opacity="0.1" style="isolation:isolate"/><path d="M414.09,151.19s20.17,28.52,36.67,10c0,0,3.88-2.07,3-6.35,0,0-1.45,1.09-3.17-2a16.06,16.06,0,0,0-2.23-3.07,7.9,7.9,0,0,0-4.39-2.42h0s-9.29-5.11-24.18,1.93c0,0-4.49,0-5.12.64l5.64,3s2.06-4.23,5.8-5.2c0,0-5.83,4.92-5,5.69.17.15,3.06,1.46,3.06,1.46s3.61-7.32,9.44-8.65c0,0-7.73,4.93-8.34,9.16l4.47,1.72s3.43-7.93,10-9.69c0,0-7.9,5.43-9,10l4.63,1.1s3.5-7.67,9-9.1c0,0-8.49,7.2-7.9,9.28,0,0,4.31.75,5.55.39,0,0,2.64-5.44,5.9-6,0,0-5.17,5.41-4.68,6.07,0,0,5.87-.52,8.71-2.36a17.85,17.85,0,0,1-8.59,3.27,9.81,9.81,0,0,0,5.16,2.29s-3,1.77-6.58-2.18c0,0-4.6.22-5.23-.2,0,0,3,4.39,6.07,6,0,0-4.32-.15-7.31-6.25l-4.68-1s3.61,6,6.27,7.66c0,0-4.38-.83-7.43-8l-4.41-1.64s2.72,5.42,5.28,7.89c0,0-3.89-1.65-6.52-8.41l-2.85-1.39s2.05,3.92,2.75,5,.45,1.35.45,1.35a15,15,0,0,1-4.39-6.93S414.32,150.83,414.09,151.19Z" fill="#ac5c68"/><path d="M382.32,180.42s-33.9-8.59-34.46,16.14c0,0-1.62,4.09,1.86,6.75,0,0,.4-1.76,3.74-.5a16.09,16.09,0,0,0,3.68.9,8,8,0,0,0,4.91-1h0s10.39-2.13,17.15-17.15c0,0,3.43-2.9,3.49-3.81l-6.25,1.36s1.17,4.55-1,7.72c0,0,1.24-7.52.1-7.56-.23,0-3.28.87-3.28.87s2,7.92-1.57,12.71c0,0,2.69-8.77.41-12.39l-4.53,1.6s2.53,8.26-1.33,13.87c0,0,2.49-9.26.37-13.45l-4.29,2.15s2.31,8.11-.94,12.75c0,0,1.8-11,0-12.18,0,0-3.77,2.22-4.48,3.3,0,0,1.52,5.85-.61,8.38,0,0,.43-7.47-.36-7.65,0,0-4.14,4.21-5.11,7.45a17.78,17.78,0,0,1,4.42-8.06,9.81,9.81,0,0,0-5.41,1.6s1.15-3.31,6.42-2.61c0,0,3.36-3.15,4.11-3.24,0,0-5.1-1.43-8.51-.64,0,0,3.38-2.68,9.62,0l4.2-2.28s-6.64-2.24-9.74-1.76c0,0,3.88-2.21,10.85,1.28l4.42-1.61s-5.58-2.37-9.13-2.58c0,0,4-1.28,10.41,2.16l3.08-.73s-4.1-1.65-5.33-2-1.22-.73-1.22-.73a15,15,0,0,1,7.84,2.42S382.32,180.83,382.32,180.42Z" fill="#ac5c68"/><path d="M305.68,65.48s-16.22,30.94,7.75,37.21c0,0,3.61,2.52,7-.25,0,0-1.63-.8.38-3.75a16.55,16.55,0,0,0,1.72-3.38,7.92,7.92,0,0,0,.15-5h0S323,79.71,310,69.66c0,0-2-4-2.9-4.27l-.12,6.4s4.7-.1,7.27,2.79c0,0-7-3-7.33-1.84-.06.22.09,3.39.09,3.39s8.16-.12,12,4.46c0,0-7.9-4.64-12-3.26l.51,4.77s8.62-.55,13.18,4.51c0,0-8.43-4.57-13-3.47l1.13,4.62s8.42-.37,12.19,3.86c0,0-10.27-4.29-11.86-2.81,0,0,1.3,4.18,2.18,5.12,0,0,6-.13,8,2.53,0,0-7.17-2.14-7.54-1.41,0,0,3.14,5,6.07,6.68a17.89,17.89,0,0,1-6.82-6.16,9.86,9.86,0,0,0,.31,5.64s-3-1.89-1.06-6.86c0,0-2.29-4-2.2-4.74,0,0-2.57,4.63-2.58,8.13,0,0-1.84-3.91,2.24-9.35l-1.24-4.62s-3.72,6-4,9.07c0,0-1.25-4.28,3.75-10.26l-.54-4.67s-3.6,4.88-4.62,8.29c0,0-.31-4.22,4.51-9.64V73.4s-2.56,3.61-3.2,4.72-1,1-1,1a15,15,0,0,1,4.17-7.07S306.07,65.54,305.68,65.48Z" fill="#ac5c68"/><path d="M537.67,602.83c-3.89-.49-9.88-3.34-12.35-4.59.38-1.46.68-2.36.68-2.36,4,5.1,11.17,2.93,11.17,2.93S537.39,600.48,537.67,602.83Z" opacity="0.1" style="isolation:isolate"/><path d="M1019.82,682s-41.37-2.49-36.49,26.49c0,0-1,5.13,3.67,7.45,0,0,.08-2.15,4.24-1.42a19.39,19.39,0,0,0,4.5.22,9.29,9.29,0,0,0,5.49-2.27h0s11.63-4.8,16.15-23.81c0,0,3.35-4.14,3.22-5.21l-7,3s2.38,5,.51,9.22c0,0-.23-9-1.57-8.82-.27,0-3.63,1.74-3.63,1.74s4.1,8.78,1,15.15c0,0,1.17-10.81-2.29-14.51l-4.92,2.87s4.8,9.06,1.55,16.45c0,0,.83-11.34-2.58-15.75l-4.45,3.47s4.5,8.93,1.76,15.06c0,0-.36-13.2-2.73-14.2,0,0-3.89,3.44-4.49,4.85,0,0,3.09,6.48,1.18,9.9,0,0-1.18-8.79-2.14-8.83,0,0-3.88,5.83-4.29,9.82,0,0,.17-5.94,3.35-10.38a11.66,11.66,0,0,0-6,3.08s.61-4.12,6.91-4.48c0,0,3.2-4.42,4.06-4.69,0,0-6.26-.53-10.06,1.16,0,0,3.34-3.89,11.21-2.12l4.4-3.59s-8.25-1.13-11.75.12c0,0,4-3.44,12.93-.94l4.79-2.86s-7-1.51-11.22-1c0,0,4.42-2.38,12.62.2l3.42-1.53s-5.15-1-6.66-1.17-1.59-.58-1.59-.58a17.8,17.8,0,0,1,9.68,1.08S1019.94,682.47,1019.82,682Z" fill="#ac5c68"/><ellipse cx="991.33" cy="718.48" rx="29.28" ry="4.95" fill="#ac5c68" opacity="0.1" style="isolation:isolate"/><path d="M614.42,704.23s-41.37-2.5-36.49,26.49c0,0-1,5.12,3.67,7.45,0,0,.08-2.15,4.24-1.42a19.39,19.39,0,0,0,4.5.22,9.38,9.38,0,0,0,5.49-2.27h0s11.63-4.81,16.15-23.81c0,0,3.35-4.15,3.22-5.21l-7,3s2.38,5,.51,9.22c0,0-.23-9-1.57-8.83-.27,0-3.63,1.75-3.63,1.75s4.1,8.77,1,15.15c0,0,1.17-10.81-2.29-14.52l-4.9,2.85s4.8,9.06,1.55,16.46c0,0,.83-11.34-2.58-15.76l-4.45,3.47s4.5,8.93,1.76,15.07c0,0-.36-13.21-2.73-14.2,0,0-3.89,3.43-4.49,4.85,0,0,3.09,6.48,1.18,9.9,0,0-1.18-8.8-2.14-8.84,0,0-3.88,5.83-4.29,9.82,0,0,.17-5.94,3.35-10.38a11.75,11.75,0,0,0-5.94,3.08s.6-4.12,6.9-4.48c0,0,3.2-4.42,4.06-4.69,0,0-6.26-.52-10.06,1.16,0,0,3.34-3.88,11.21-2.12l4.4-3.59s-8.25-1.12-11.75.12c0,0,4-3.43,12.93-.93l4.79-2.86s-7-1.52-11.22-1c0,0,4.42-2.38,12.62.2l3.42-1.54s-5.15-1-6.66-1.17-1.59-.57-1.59-.57a17.81,17.81,0,0,1,9.68,1.07S614.54,704.68,614.42,704.23Z" fill="#ac5c68"/><ellipse cx="585.93" cy="740.69" rx="29.28" ry="4.95" fill="#ac5c68" opacity="0.1" style="isolation:isolate"/><path d="M799.57,633.27c6.25-2.18,42.82-3,48.84-3.14-3.55-3.87-6.17-7-6.17-7s-29.79-.6-38.39,4.2C801.87,628.42,800.5,630.59,799.57,633.27Z" opacity="0.1" style="isolation:isolate"/><path d="M642.83,615.88c7.65,26.48,39.63,17.83,39.63,17.83l.6-3.36c-2.58-2.92-4.4-5-4.4-5s-7-18.6-26.39-14.4A19.84,19.84,0,0,0,642.83,615.88Z" opacity="0.1" style="isolation:isolate"/><path d="M824.85,486.73s-12.6,4.2-16,10.2S824.85,486.73,824.85,486.73Z" opacity="0.1" style="isolation:isolate"/><path d="M818.45,473.53c-.4.6-17.26,17.51-16.2,21.6S818.45,473.53,818.45,473.53Z" opacity="0.1" style="isolation:isolate"/><path d="M725.86,485.53s-18.8,8.86-20.4,12.73S725.86,485.53,725.86,485.53Z" opacity="0.1" style="isolation:isolate"/><path d="M724.66,496.93s-17,7.2-19.28,9S724.66,496.93,724.66,496.93Z" opacity="0.1" style="isolation:isolate"/><path d="M716.86,512.33s-7.51,5.59-11.66,1.2S716.86,512.33,716.86,512.33Z" opacity="0.1" style="isolation:isolate"/><polygon points="200.15 659.15 202.8 663.94 289.03 645.66 285.63 640.24 200.15 659.15" fill="#464a5f"/><path d="M189.81,663.83l-13.05-77.47a2.46,2.46,0,0,1,2-2.84l.16,0,99-10.56a2.46,2.46,0,0,1,2.71,2.12l9.26,67.84Z" fill="#464a5f"/><path d="M189.81,663.83l-13.05-77.47a2.46,2.46,0,0,1,2-2.84l.16,0,99-10.56a2.46,2.46,0,0,1,2.71,2.12l9.26,67.84Z" opacity="0.1" style="isolation:isolate"/><path d="M191.32,663.83l-13-77.48a2.46,2.46,0,0,1,2-2.84l.17,0,99-10.56a2.46,2.46,0,0,1,2.71,2.12l9.26,67.84Z" fill="#464a5f"/><polygon points="185.15 589.82 195.87 655.62 285.37 637.22 277.05 578.72 185.15 589.82" fill="#ac5c68"/><path d="M202.32,662.43l-.63-1.26-11.88,2.66L220,709.94a3.89,3.89,0,0,0,4.35,1.61l106-30.82a3.9,3.9,0,0,0,1.3-6.9l-41.08-31.11-8.58,2,.38.88Z" fill="#9c9ca1"/><path d="M202.32,662.43l-.63-1.26-11.88,2.66L220,709.94a3.89,3.89,0,0,0,4.35,1.61l106-30.82a3.9,3.9,0,0,0,1.3-6.9l-41.08-31.11-8.58,2,.38.88Z" opacity="0.1" style="isolation:isolate"/><path d="M203.8,662.43l-.63-1.26-11.85,2.66,30.19,46.11a3.9,3.9,0,0,0,4.36,1.61l106-30.81a3.91,3.91,0,0,0,2.67-4.83,4,4,0,0,0-1.4-2l-41.08-31.11-8.57,2,.38.88Z" fill="#9c9ca1"/><path d="M251.08,681.33l34.07-8.85a.64.64,0,0,1,.61.15l15.13,13.72a.65.65,0,0,1,0,.93.6.6,0,0,1-.3.19l-36,10.64a.67.67,0,0,1-.69-.21l-13.16-15.51a.65.65,0,0,1,.07-.93A.76.76,0,0,1,251.08,681.33Z" opacity="0.1" style="isolation:isolate"/><path d="M251.84,680.57l34.07-8.85a.66.66,0,0,1,.6.15l15.13,13.72a.66.66,0,0,1,.05.93.64.64,0,0,1-.3.19l-36,10.64a.65.65,0,0,1-.69-.2l-13.2-15.52a.66.66,0,0,1,.09-.93A.6.6,0,0,1,251.84,680.57Z" fill="#939498"/><g opacity="0.1"><path d="M203.87,668.83l1.53,2.46a.3.3,0,0,0,.31.13l5.16-1.15a.3.3,0,0,0,.22-.36.18.18,0,0,0,0-.1l-1.73-2.34a.32.32,0,0,0-.3-.12l-5,1.07a.31.31,0,0,0-.16.39Z"/><path d="M210.61,667.45l1.53,2.46a.28.28,0,0,0,.31.13l5.17-1.15a.29.29,0,0,0,.21-.37.36.36,0,0,0,0-.09l-1.71-2.38a.29.29,0,0,0-.3-.11l-5,1.07a.29.29,0,0,0-.21.35A.36.36,0,0,0,210.61,667.45Z"/><path d="M217.17,666l1.53,2.46a.28.28,0,0,0,.31.13l5.16-1.15a.29.29,0,0,0,.23-.34.37.37,0,0,0-.05-.11l-1.71-2.39a.29.29,0,0,0-.3-.11l-5,1.07a.29.29,0,0,0-.21.35A.36.36,0,0,0,217.17,666Z"/><path d="M223.61,664.63l1.51,2.43a.31.31,0,0,0,.33.14l5.12-1.14a.3.3,0,0,0,.19-.49l-1.69-2.34a.3.3,0,0,0-.32-.13l-4.94,1.06a.32.32,0,0,0-.23.39S223.6,664.6,223.61,664.63Z"/><path d="M223.09,668.39l1.53,2.44a.31.31,0,0,0,.31.13l5.17-1.15a.29.29,0,0,0,.21-.37.36.36,0,0,0,0-.09L228.56,667a.29.29,0,0,0-.3-.12l-5,1.07a.29.29,0,0,0-.23.34A.31.31,0,0,0,223.09,668.39Z"/><path d="M216.41,669.83l1.53,2.46a.3.3,0,0,0,.31.14l5.16-1.15a.3.3,0,0,0,.22-.36.18.18,0,0,0,0-.1l-1.71-2.38a.3.3,0,0,0-.3-.12l-5,1.07a.29.29,0,0,0-.21.35A.36.36,0,0,0,216.41,669.83Z"/><path d="M220.76,672.83l1.53,2.46a.28.28,0,0,0,.31.13l5.16-1.15a.3.3,0,0,0,.22-.36.18.18,0,0,0,0-.1l-1.71-2.38a.29.29,0,0,0-.3-.11l-5,1.06a.31.31,0,0,0-.21.37A.2.2,0,0,0,220.76,672.83Z"/><path d="M226.91,675.48l1.52,2.47a.31.31,0,0,0,.32.13l5.16-1.15a.28.28,0,0,0,.22-.34.22.22,0,0,0,0-.12l-1.7-2.38a.3.3,0,0,0-.3-.12l-5,1.07a.29.29,0,0,0-.21.35A.36.36,0,0,0,226.91,675.48Z"/><path d="M228,679.77l2.47,3.09a.3.3,0,0,0,.31.1l5.2-1.35a.29.29,0,0,0,.21-.35.23.23,0,0,0-.06-.12L233.55,678a.29.29,0,0,0-.3-.1l-5.12,1.38a.3.3,0,0,0-.21.37A.31.31,0,0,0,228,679.77Z"/><path d="M234.78,678.06l2.53,3.19a.3.3,0,0,0,.31.1l6.78-1.88a.29.29,0,0,0,.21-.35.23.23,0,0,0-.06-.12L242,675.88a.31.31,0,0,0-.31-.1l-6.76,1.82a.29.29,0,0,0-.2.36Z"/><path d="M221.32,681.41l2.47,3.09a.3.3,0,0,0,.31.1l5.2-1.35a.29.29,0,0,0,.21-.35.23.23,0,0,0-.06-.12l-2.55-3.12a.29.29,0,0,0-.3-.1l-5.12,1.38a.3.3,0,0,0-.21.37A.31.31,0,0,0,221.32,681.41Z"/><path d="M214.32,683.23l2.46,3.1a.31.31,0,0,0,.31.1l5.2-1.35a.29.29,0,0,0,.21-.35.23.23,0,0,0-.06-.12l-2.55-3.12a.29.29,0,0,0-.3-.1l-5.12,1.38a.27.27,0,0,0-.21.33A.31.31,0,0,0,214.32,683.23Z"/><path d="M230.07,663.12l1.51,2.43a.31.31,0,0,0,.33.14l5.12-1.14a.32.32,0,0,0,.24-.39l-.05-.1-1.69-2.35a.31.31,0,0,0-.32-.12l-4.89,1.06a.32.32,0,0,0-.29.35A.56.56,0,0,0,230.07,663.12Z"/><path d="M229.66,666.9l1.51,2.43a.31.31,0,0,0,.33.14l5.12-1.14a.3.3,0,0,0,.19-.49l-1.69-2.34a.3.3,0,0,0-.32-.13l-4.94,1.06a.32.32,0,0,0-.23.39S229.65,666.87,229.66,666.9Z"/><path d="M236.32,661.7l1.51,2.43a.31.31,0,0,0,.33.14l5.16-1.14a.3.3,0,0,0,.19-.49l-1.68-2.35a.33.33,0,0,0-.32-.12l-4.95,1.06a.32.32,0,0,0-.28.36A.36.36,0,0,0,236.32,661.7Z"/><path d="M254.68,657.7l2.13,2.26a.24.24,0,0,0,.24.07l4.57-1.06a.25.25,0,0,0,.2-.29.25.25,0,0,0-.08-.14l-2.4-2.26a.24.24,0,0,0-.23-.06l-4.3,1.06a.26.26,0,0,0-.18.32A.19.19,0,0,0,254.68,657.7Z"/><path d="M260.55,656.35l2.12,2.25a.24.24,0,0,0,.24.08l4.57-1.06a.25.25,0,0,0,.2-.29.25.25,0,0,0-.08-.14l-2.4-2.26a.24.24,0,0,0-.23-.06l-4.3,1.06a.26.26,0,0,0-.19.3A.24.24,0,0,0,260.55,656.35Z"/><path d="M254.81,661.36l2.13,2.26a.26.26,0,0,0,.24.07l4.57-1.06a.26.26,0,0,0,.19-.3.22.22,0,0,0-.08-.13l-2.39-2.26a.26.26,0,0,0-.24-.06l-4.3,1.06a.26.26,0,0,0-.17.32A.31.31,0,0,0,254.81,661.36Z"/><path d="M248.8,662.76l2,2.15a.31.31,0,0,0,.3.09l4.42-1a.3.3,0,0,0,.24-.37.26.26,0,0,0-.09-.16l-2.29-2.16a.29.29,0,0,0-.29-.08l-4.17,1a.31.31,0,0,0-.21.38A.29.29,0,0,0,248.8,662.76Z"/><path d="M253.37,669.56l2,2.16a.31.31,0,0,0,.3.09l4.42-1a.32.32,0,0,0,.24-.39.46.46,0,0,0-.09-.15L258,668.11a.31.31,0,0,0-.29-.07l-4.17,1a.31.31,0,0,0-.2.39A.26.26,0,0,0,253.37,669.56Z"/><path d="M247.1,671l2,2.16a.33.33,0,0,0,.3.09l4.42-1a.31.31,0,0,0,.23-.37.26.26,0,0,0-.09-.16l-2.28-2.16a.34.34,0,0,0-.29-.08l-4.17,1a.31.31,0,0,0-.2.39A.26.26,0,0,0,247.1,671Z"/><path d="M240.73,672.56l2,2.16a.33.33,0,0,0,.3.09l4.42-1a.3.3,0,0,0,.24-.37.26.26,0,0,0-.09-.16l-2.28-2.19A.34.34,0,0,0,245,671l-4.17,1a.32.32,0,0,0-.23.39A.34.34,0,0,0,240.73,672.56Z"/><path d="M234,673.89l2.07,2.19a.27.27,0,0,0,.28.08l4.47-1a.31.31,0,0,0,.21-.37.35.35,0,0,0-.08-.13l-2.32-2.2a.33.33,0,0,0-.27-.07l-4.21,1a.31.31,0,0,0-.23.36A.39.39,0,0,0,234,673.89Z"/><path d="M247,667l2,2.16a.31.31,0,0,0,.3.09l4.43-1a.33.33,0,0,0,.23-.39.38.38,0,0,0-.09-.15l-2.29-2.16a.31.31,0,0,0-.29-.07l-4.16,1a.32.32,0,0,0-.2.41A.41.41,0,0,0,247,667Z"/><path d="M240.92,668.46l2,2.16a.33.33,0,0,0,.3.09l4.42-1a.3.3,0,0,0,.24-.37.26.26,0,0,0-.09-.16L245.5,667a.34.34,0,0,0-.29-.08l-4.17,1a.32.32,0,0,0-.19.41A.41.41,0,0,0,240.92,668.46Z"/><path d="M234.32,669.83l2,2.15a.31.31,0,0,0,.3.1l4.43-1a.31.31,0,0,0,.23-.37.26.26,0,0,0-.09-.16l-2.29-2.16a.29.29,0,0,0-.29-.08l-4.16,1a.31.31,0,0,0-.21.38A.25.25,0,0,0,234.32,669.83Z"/><path d="M227.66,671.4l2.06,2.19a.27.27,0,0,0,.28.08l4.47-1a.3.3,0,0,0,.22-.37.35.35,0,0,0-.08-.13L232.32,670a.32.32,0,0,0-.28-.08l-4.21,1a.3.3,0,0,0-.28.32A.33.33,0,0,0,227.66,671.4Z"/><path d="M253.32,665.56l2,2.16a.33.33,0,0,0,.3.09l4.42-1a.31.31,0,0,0,.23-.37.26.26,0,0,0-.09-.16l-2.28-2.16a.34.34,0,0,0-.29-.08l-4.17,1a.31.31,0,0,0-.2.39A.26.26,0,0,0,253.32,665.56Z"/><path d="M242.65,664.33l2,2.16a.31.31,0,0,0,.3.09l4.43-1a.31.31,0,0,0,.23-.37.26.26,0,0,0-.09-.16l-2.26-2.22a.31.31,0,0,0-.29-.07l-4.16,1a.31.31,0,0,0-.28.35A.3.3,0,0,0,242.65,664.33Z"/><path d="M266.2,654.91l2.23,2.37a.19.19,0,0,0,.18,0l4.73-1.09a.19.19,0,0,0,.13-.23.19.19,0,0,0-.05-.09l-2.51-2.37a.18.18,0,0,0-.17,0l-4.44,1.1a.2.2,0,0,0-.21.17A.2.2,0,0,0,266.2,654.91Z"/><path d="M271.91,653.65l2.23,2.37a.19.19,0,0,0,.18,0l4.72-1.09a.19.19,0,0,0,.14-.23.2.2,0,0,0-.05-.09l-2.51-2.37a.2.2,0,0,0-.18,0l-4.44,1.1a.2.2,0,0,0-.23.13A.19.19,0,0,0,271.91,653.65Z"/><path d="M277.77,652.3l2,2.2a.17.17,0,0,0,.18,0l4.4-1.2a.19.19,0,0,0,.13-.23.19.19,0,0,0-.05-.09l-2.28-1.92a.15.15,0,0,0-.16,0l-4.16.92a.19.19,0,0,0-.07.26Z"/><path d="M283.92,654.35l2,2.2a.21.21,0,0,0,.19,0l4.4-1.2a.18.18,0,0,0,.14-.21.21.21,0,0,0-.07-.11l-2.26-1.87a.22.22,0,0,0-.16,0l-4.16.92a.18.18,0,0,0-.1.23Z"/><path d="M283.18,658.34l1.93,2.09a.29.29,0,0,0,.25.07l4.24-1.16a.26.26,0,0,0,.17-.32.24.24,0,0,0-.07-.12l-2.16-1.81a.26.26,0,0,0-.21,0l-4,.88a.26.26,0,0,0-.18.31Z"/><path d="M278.17,663.41l1.93,2.09a.23.23,0,0,0,.25.07l4.24-1.16a.26.26,0,0,0,.18-.31.32.32,0,0,0-.08-.12l-2.16-1.82a.23.23,0,0,0-.21,0l-4,.89a.24.24,0,0,0-.22.26A.21.21,0,0,0,278.17,663.41Z"/><path d="M272.15,665l1.93,2.09a.29.29,0,0,0,.25.07l4.24-1.16a.26.26,0,0,0,.17-.32.24.24,0,0,0-.07-.12l-2.16-1.81a.26.26,0,0,0-.21-.06l-4,.89a.26.26,0,0,0-.22.28A.27.27,0,0,0,272.15,665Z"/><path d="M283.84,661.93l1.93,2.09a.23.23,0,0,0,.25.07l4.24-1.16a.26.26,0,0,0,.18-.31.32.32,0,0,0-.08-.12l-2.16-1.82a.23.23,0,0,0-.21,0l-4,.88a.26.26,0,0,0-.2.31A.16.16,0,0,0,283.84,661.93Z"/><path d="M282.85,666.44l2.92,2.61a.21.21,0,0,0,.24,0l4.21-1.19a.25.25,0,0,0,.09-.43l-3.13-2.75a.28.28,0,0,0-.25,0l-4,1.33a.26.26,0,0,0-.14.34A.24.24,0,0,0,282.85,666.44Z"/><path d="M272.67,657.18l2,2.2a.22.22,0,0,0,.19.06l4.4-1.2a.2.2,0,0,0,.12-.26l-.05-.07L277.06,656a.15.15,0,0,0-.16,0l-4.17.91a.19.19,0,0,0-.07.26Z"/><path d="M267,658.59l1.93,2.09a.23.23,0,0,0,.25.07l4.24-1.16a.26.26,0,0,0,.18-.31.32.32,0,0,0-.08-.12l-2.18-1.82a.26.26,0,0,0-.21,0l-4,.88a.27.27,0,0,0-.15.34Z"/><path d="M265.81,662.63l1.93,2.08a.23.23,0,0,0,.25.07l4.25-1.15a.25.25,0,0,0,.16-.33.26.26,0,0,0-.07-.11l-2.15-1.82a.28.28,0,0,0-.22,0l-4,.89a.26.26,0,0,0-.18.31Z"/><path d="M259.82,664.08l1.93,2.08a.23.23,0,0,0,.25.07l4.25-1.15a.25.25,0,0,0,.16-.33.26.26,0,0,0-.07-.11l-2.15-1.81a.28.28,0,0,0-.22,0l-4,.89a.25.25,0,0,0-.17.31S259.81,664.06,259.82,664.08Z"/><path d="M260.89,660l1.93,2.08a.29.29,0,0,0,.26.08l4.24-1.16a.25.25,0,0,0,.16-.33.26.26,0,0,0-.07-.11l-2.15-1.81a.29.29,0,0,0-.22-.06l-4,.89a.26.26,0,0,0-.2.31A.16.16,0,0,0,260.89,660Z"/><path d="M265.91,666.34l1.93,2.09a.23.23,0,0,0,.25.07l4.24-1.15a.26.26,0,0,0,.17-.32.24.24,0,0,0-.07-.12l-2.11-1.82a.26.26,0,0,0-.21,0l-4,.89a.24.24,0,0,0-.23.25A.2.2,0,0,0,265.91,666.34Z"/><path d="M260,667.94l1.83,2a.34.34,0,0,0,.32.09l4.09-1.12a.3.3,0,0,0,.22-.38.27.27,0,0,0-.1-.16l-2-1.72a.32.32,0,0,0-.27-.07l-3.89.86a.31.31,0,0,0-.25.37A.29.29,0,0,0,260,667.94Z"/><path d="M278.47,655.73l2,2.2a.2.2,0,0,0,.19.06l4.4-1.2a.2.2,0,0,0,.12-.26l-.05-.07-2.27-1.91a.17.17,0,0,0-.17,0l-4.16.92a.17.17,0,0,0-.07.24Z"/><path d="M277.66,659.69l1.93,2.09a.23.23,0,0,0,.25.07l4.25-1.15a.25.25,0,0,0,.16-.33.26.26,0,0,0-.07-.11L282,658.44a.25.25,0,0,0-.22-.05l-4,.89a.25.25,0,0,0-.21.29A.34.34,0,0,0,277.66,659.69Z"/><path d="M271.89,661.27l1.93,2.09a.28.28,0,0,0,.26.07l4.24-1.16a.25.25,0,0,0,.09-.43L276.26,660a.25.25,0,0,0-.22,0l-4,.88a.26.26,0,0,0-.2.31A.16.16,0,0,0,271.89,661.27Z"/><path d="M248.7,659l2.12,2.26a.24.24,0,0,0,.24.07l4.57-1a.25.25,0,0,0,.2-.29.25.25,0,0,0-.08-.14l-2.4-2.26a.25.25,0,0,0-.23-.07l-4.3,1.07a.24.24,0,0,0-.15.31Z"/><path d="M242.59,660.49l2,2.15a.28.28,0,0,0,.3.09l4.42-1a.3.3,0,0,0,.24-.37.26.26,0,0,0-.09-.16L247.17,659a.29.29,0,0,0-.29-.08l-4.17,1a.32.32,0,0,0-.2.41A.5.5,0,0,0,242.59,660.49Z"/><path d="M236.06,665.55l1.51,2.43a.31.31,0,0,0,.33.14L243,667a.32.32,0,0,0,.24-.39.47.47,0,0,0,0-.1l-1.69-2.35a.31.31,0,0,0-.32-.12l-4.94,1.06a.3.3,0,0,0-.24.37A.42.42,0,0,0,236.06,665.55Z"/><path d="M202.55,666.45l5-1.17a.31.31,0,0,1,.3.11l.89,1.17a.3.3,0,0,1,0,.41l-.12,0-5.23,1.22a.31.31,0,0,1-.33-.14l-.7-1.21a.31.31,0,0,1,.11-.41Z"/><path d="M209.49,664.94l5.06-1.17a.31.31,0,0,1,.3.11l.88,1.17a.29.29,0,0,1,0,.41l-.11,0-5.25,1.22a.3.3,0,0,1-.32-.14l-.7-1.22a.3.3,0,0,1,.1-.4Z"/><path d="M216.21,663.5l5-1.17a.29.29,0,0,1,.3.11l.89,1.16a.3.3,0,0,1-.06.42l-.11.05-5.23,1.22a.29.29,0,0,1-.32-.14l-.71-1.22a.3.3,0,0,1,.1-.4Z"/><path d="M222.73,662l5-1.17a.29.29,0,0,1,.3.11l.89,1.17a.3.3,0,0,1,0,.41l-.12.05-5.18,1.25a.3.3,0,0,1-.32-.14l-.71-1.22a.29.29,0,0,1,.06-.41Z"/><path d="M229.4,660.54l5-1.16a.33.33,0,0,1,.32.11l.86,1.14a.3.3,0,0,1-.06.43.24.24,0,0,1-.11.06l-5.19,1.21a.31.31,0,0,1-.34-.15l-.69-1.18a.3.3,0,0,1,.11-.42Z"/><path d="M235.85,659.19l5-1.16a.31.31,0,0,1,.32.12l.86,1.13a.3.3,0,0,1-.06.43l-.12.06L236.66,661a.32.32,0,0,1-.34-.15l-.69-1.18a.32.32,0,0,1,.14-.43Z"/><path d="M242.17,657.88l4.63-1.13a.33.33,0,0,1,.3.09l.9,1a.31.31,0,0,1,0,.45.24.24,0,0,1-.12.07l-4.53,1.09a.3.3,0,0,1-.3-.08l-1-1a.31.31,0,0,1,0-.44Z"/><path d="M248.32,656.46l4.77-1.16a.26.26,0,0,1,.24.07l1,1a.24.24,0,0,1,0,.35.19.19,0,0,1-.12.07L249.5,658a.24.24,0,0,1-.24-.07l-1.06-1.07a.24.24,0,0,1,0-.35A.19.19,0,0,1,248.32,656.46Z"/><path d="M254.43,655l4.76-1.16a.29.29,0,0,1,.25.07l1,1a.24.24,0,0,1,0,.35.19.19,0,0,1-.12.07l-4.71,1.18a.24.24,0,0,1-.24-.07l-1.05-1a.24.24,0,0,1,0-.35A.19.19,0,0,1,254.43,655Z"/><path d="M260.55,653.77l4.77-1.16a.24.24,0,0,1,.24.07l1,1a.24.24,0,0,1,0,.35.19.19,0,0,1-.12.07l-4.71,1.19a.26.26,0,0,1-.24-.07l-1.05-1.07a.25.25,0,0,1,.05-.35Z"/><path d="M266.32,652.38l4.91-1.2a.19.19,0,0,1,.18,0l1.1,1.16a.2.2,0,0,1,0,.27l-.08,0-4.86,1.22a.22.22,0,0,1-.17,0l-1.16-1.18a.19.19,0,0,1,.06-.25Z"/><path d="M272.21,651.12l4.91-1.19a.19.19,0,0,1,.18,0l1.1,1.15a.18.18,0,0,1,0,.25.21.21,0,0,1-.1.06l-4.85,1.22a.17.17,0,0,1-.18-.05l-1.16-1.17a.19.19,0,0,1,.07-.26Z"/><path d="M278.05,649.83l4.55-1a.18.18,0,0,1,.19.06l.87,1.08a.19.19,0,0,1,0,.27l-.06,0-4.25,1.05a.21.21,0,0,1-.19,0L278,650.14a.2.2,0,0,1,0-.27Z"/><path d="M283.63,648.5l4.55-1a.17.17,0,0,1,.18.06l.88,1.08a.17.17,0,0,1,0,.25.14.14,0,0,1-.08.05l-4.28,1.13a.18.18,0,0,1-.18-.05l-1.15-1.19a.19.19,0,0,1,0-.27A.24.24,0,0,1,283.63,648.5Z"/><path d="M206.09,672.47l1.67,2.39a.29.29,0,0,0,.31.12l8.75-2a.28.28,0,0,0,.22-.34.22.22,0,0,0,0-.12l-1.86-2.44a.28.28,0,0,0-.3-.11l-8.57,2.1a.29.29,0,0,0-.18.37A0,0,0,0,0,206.09,672.47Z"/><path d="M208.73,675.68l1.68,2.67a.31.31,0,0,0,.32.13L221.32,676a.28.28,0,0,0,.22-.35.34.34,0,0,0-.06-.12l-2.1-2.59a.29.29,0,0,0-.29-.1l-10.16,2.44a.3.3,0,0,0-.23.36S208.72,675.65,208.73,675.68Z"/><path d="M211.13,679.21l2.05,2.89a.28.28,0,0,0,.3.11l14-3.46a.28.28,0,0,0,.21-.35.22.22,0,0,0-.05-.11l-2.25-2.9a.29.29,0,0,0-.3-.1l-13.77,3.46a.29.29,0,0,0-.23.35A.21.21,0,0,0,211.13,679.21Z"/><path d="M243.18,676.05l2.56,3.08a.3.3,0,0,0,.31.1l30.81-7.68a.32.32,0,0,0,.22-.4A.35.35,0,0,0,277,671l-3.14-3.12a.33.33,0,0,0-.3-.09l-30.24,7.73a.32.32,0,0,0-.2.41A.27.27,0,0,0,243.18,676.05Z"/><path d="M275,668.08l3,3a.24.24,0,0,0,.24.06l6.32-1.69a.26.26,0,0,0,.18-.31.41.41,0,0,0-.07-.11L281.52,666a.24.24,0,0,0-.24-.07l-6.21,1.72a.25.25,0,0,0-.21.29A.3.3,0,0,0,275,668.08Z"/><path d="M290.22,666.17l1.37,1.45a.19.19,0,0,0,.19,0l4.67-1.25a.19.19,0,0,0,.13-.23.19.19,0,0,0-.05-.09l-1.66-1.56a.18.18,0,0,0-.18,0l-4.37,1.34a.19.19,0,0,0-.17.21A.17.17,0,0,0,290.22,666.17Z"/><path d="M294.2,663.06l1.64,1.72a.18.18,0,0,0,.2,0l4.29-1.48a.18.18,0,0,0,.11-.24.22.22,0,0,0-.05-.08l-1.6-1.44a.17.17,0,0,0-.17,0l-4.3,1.21a.19.19,0,0,0-.18.18A.26.26,0,0,0,294.2,663.06Z"/><path d="M297.37,666l-1.18-1a.2.2,0,0,1,0-.27l.09-.06,4.28-1.48a.21.21,0,0,1,.19,0l1.34,1.3a.2.2,0,0,1,0,.27l-.08,0L297.53,666A.18.18,0,0,1,297.37,666Z"/><path d="M301.75,663.39c.37.36,1,1.06,1.26,1.3a.21.21,0,0,0,.19,0l4.45-1.21a.18.18,0,0,0,.14-.22.18.18,0,0,0-.06-.09l-1.58-1.34a.21.21,0,0,0-.19,0l-4.14,1.33A.19.19,0,0,0,301.75,663.39Z"/><path d="M289.26,660.58l2.38,2.3a.19.19,0,0,0,.18,0l11.48-3a.19.19,0,0,0,.13-.23.17.17,0,0,0-.06-.1l-2.78-2.3a.17.17,0,0,0-.17,0l-11.08,3a.19.19,0,0,0-.14.23A.21.21,0,0,0,289.26,660.58Z"/><path d="M288.48,657l2.46,2.19a.15.15,0,0,0,.16,0l8.65-2a.19.19,0,0,0,.13-.23.17.17,0,0,0-.06-.1L297,654.53a.17.17,0,0,0-.17,0l-8.27,2.22a.2.2,0,0,0-.09.25Z"/><path d="M289.32,653.26l2.33,2.08a.22.22,0,0,0,.16,0l4.44-1a.18.18,0,0,0,.08-.32l-2.76-2.38a.19.19,0,0,0-.18,0l-4,1.29a.17.17,0,0,0-.15.2A.2.2,0,0,0,289.32,653.26Z"/><path d="M283.2,651.19l2.25,2a.17.17,0,0,0,.17,0l7-1.66a.19.19,0,0,0,.13-.23.17.17,0,0,0-.06-.1L290,649a.17.17,0,0,0-.17,0l-6.51,1.88a.18.18,0,0,0-.23.13A.19.19,0,0,0,283.2,651.19Z"/></g><path d="M203.87,668.11l1.53,2.46a.28.28,0,0,0,.31.13l5.16-1.15a.29.29,0,0,0,.23-.34.37.37,0,0,0,0-.11l-1.73-2.39a.29.29,0,0,0-.3-.11l-5,1.07a.3.3,0,0,0-.19.37A.25.25,0,0,0,203.87,668.11Z" fill="#464a5f"/><path d="M210.61,666.69l1.53,2.46a.3.3,0,0,0,.31.14l5.17-1.15a.29.29,0,0,0,.21-.37.36.36,0,0,0,0-.09l-1.71-2.38a.29.29,0,0,0-.3-.12l-5,1.07a.29.29,0,0,0-.21.35A.36.36,0,0,0,210.61,666.69Z" fill="#464a5f"/><path d="M217.17,665.27l1.53,2.47a.31.31,0,0,0,.31.13l5.16-1.15a.3.3,0,0,0,.22-.36.18.18,0,0,0,0-.1l-1.71-2.38a.3.3,0,0,0-.3-.12l-5,1.07a.3.3,0,0,0-.19.37A.25.25,0,0,0,217.17,665.27Z" fill="#464a5f"/><path d="M223.61,663.88l1.51,2.43a.31.31,0,0,0,.33.14l5.12-1.14a.32.32,0,0,0,.24-.39l-.05-.1-1.69-2.35a.31.31,0,0,0-.32-.12l-4.94,1.06a.3.3,0,0,0-.24.37A.42.42,0,0,0,223.61,663.88Z" fill="#464a5f"/><path d="M223.09,667.64l1.53,2.46a.28.28,0,0,0,.31.13l5.17-1.15a.29.29,0,0,0,.21-.37.36.36,0,0,0,0-.09l-1.71-2.38a.29.29,0,0,0-.3-.11l-5,1.06a.31.31,0,0,0-.21.37A.2.2,0,0,0,223.09,667.64Z" fill="#464a5f"/><path d="M216.41,669.05l1.53,2.47a.31.31,0,0,0,.31.13l5.16-1.15a.3.3,0,0,0,.22-.36.18.18,0,0,0,0-.1l-1.71-2.38a.3.3,0,0,0-.3-.12l-5,1.07a.29.29,0,0,0-.21.35A.36.36,0,0,0,216.41,669.05Z" fill="#464a5f"/><path d="M220.76,672.08l1.53,2.46a.28.28,0,0,0,.31.13l5.16-1.15a.29.29,0,0,0,.23-.34.37.37,0,0,0-.05-.11l-1.71-2.39a.29.29,0,0,0-.3-.11l-5,1.07a.29.29,0,0,0-.21.35A.36.36,0,0,0,220.76,672.08Z" fill="#464a5f"/><path d="M226.91,674.73l1.52,2.46a.3.3,0,0,0,.32.13l5.16-1.15a.28.28,0,0,0,.22-.34.22.22,0,0,0,0-.12l-1.7-2.38a.29.29,0,0,0-.3-.11l-5,1.07a.29.29,0,0,0-.21.35A.36.36,0,0,0,226.91,674.73Z" fill="#464a5f"/><path d="M228,679l2.47,3.09a.3.3,0,0,0,.31.1l5.2-1.35a.29.29,0,0,0,.21-.35.23.23,0,0,0-.06-.12l-2.55-3.12a.29.29,0,0,0-.3-.1l-5.12,1.38a.3.3,0,0,0-.21.37A.31.31,0,0,0,228,679Z" fill="#464a5f"/><path d="M234.78,677.31l2.53,3.18a.3.3,0,0,0,.31.1l6.78-1.87a.29.29,0,0,0,.21-.35.23.23,0,0,0-.06-.12L242,675.12a.31.31,0,0,0-.31-.1l-6.76,1.81a.3.3,0,0,0-.21.37A.24.24,0,0,0,234.78,677.31Z" fill="#464a5f"/><path d="M221.32,680.65l2.47,3.09a.3.3,0,0,0,.31.1l5.2-1.35a.29.29,0,0,0,.21-.35.23.23,0,0,0-.06-.12l-2.55-3.12a.29.29,0,0,0-.3-.1l-5.12,1.38a.3.3,0,0,0-.21.37A.31.31,0,0,0,221.32,680.65Z" fill="#464a5f"/><path d="M214.32,682.48l2.46,3.09a.31.31,0,0,0,.31.1l5.2-1.35a.29.29,0,0,0,.21-.35.23.23,0,0,0-.06-.12l-2.55-3.12a.29.29,0,0,0-.3-.1L214.47,682a.29.29,0,0,0-.21.35A.23.23,0,0,0,214.32,682.48Z" fill="#464a5f"/><path d="M230.07,662.37l1.51,2.42a.31.31,0,0,0,.33.14l5.12-1.14a.3.3,0,0,0,.19-.49L235.53,661a.33.33,0,0,0-.32-.13l-4.89,1.06a.31.31,0,0,0-.29.35A.33.33,0,0,0,230.07,662.37Z" fill="#464a5f"/><path d="M229.66,666.15l1.51,2.42a.33.33,0,0,0,.33.15l5.12-1.15a.32.32,0,0,0,.24-.37.37.37,0,0,0-.05-.11l-1.69-2.35a.31.31,0,0,0-.32-.12l-4.94,1.06a.3.3,0,0,0-.24.37A.42.42,0,0,0,229.66,666.15Z" fill="#464a5f"/><path d="M236.32,661l1.51,2.42a.33.33,0,0,0,.33.15l5.12-1.15a.32.32,0,0,0,.24-.37.37.37,0,0,0-.05-.11l-1.68-2.35a.34.34,0,0,0-.32-.13l-4.95,1.07a.3.3,0,0,0-.24.37A.42.42,0,0,0,236.32,661Z" fill="#464a5f"/><path d="M254.68,656.94l2.13,2.26a.24.24,0,0,0,.24.08l4.57-1.06a.25.25,0,0,0,.2-.29.25.25,0,0,0-.08-.14l-2.42-2.26a.22.22,0,0,0-.23-.06l-4.3,1.06a.25.25,0,0,0-.17.31A.21.21,0,0,0,254.68,656.94Z" fill="#464a5f"/><path d="M260.55,655.59l2.12,2.26a.26.26,0,0,0,.24.07l4.57-1.06a.25.25,0,0,0,.2-.29.25.25,0,0,0-.08-.14l-2.4-2.26a.24.24,0,0,0-.23-.06l-4.3,1.06a.26.26,0,0,0-.19.3A.24.24,0,0,0,260.55,655.59Z" fill="#464a5f"/><path d="M254.81,660.6l2.13,2.26a.26.26,0,0,0,.24.07l4.57-1.06a.26.26,0,0,0,.19-.3.22.22,0,0,0-.08-.13l-2.39-2.26a.26.26,0,0,0-.24-.06l-4.3,1.06a.26.26,0,0,0-.17.32A.31.31,0,0,0,254.81,660.6Z" fill="#464a5f"/><path d="M248.8,662l2,2.16a.33.33,0,0,0,.3.09l4.42-1a.3.3,0,0,0,.24-.37.26.26,0,0,0-.09-.16l-2.29-2.16a.34.34,0,0,0-.29-.08l-4.17,1a.31.31,0,0,0-.2.39A.26.26,0,0,0,248.8,662Z" fill="#464a5f"/><path d="M253.37,668.83l2,2.15a.31.31,0,0,0,.3.1l4.42-1a.3.3,0,0,0,.24-.37.26.26,0,0,0-.09-.16L258,667.39a.29.29,0,0,0-.29-.08l-4.17,1a.31.31,0,0,0-.2.39A.26.26,0,0,0,253.37,668.83Z" fill="#464a5f"/><path d="M247.1,670.23l2,2.15a.31.31,0,0,0,.3.09l4.42-1a.31.31,0,0,0,.23-.37.26.26,0,0,0-.09-.16l-2.28-2.17a.31.31,0,0,0-.29-.07l-4.17,1a.31.31,0,0,0-.21.38A.29.29,0,0,0,247.1,670.23Z" fill="#464a5f"/><path d="M240.73,671.83l2,2.16a.33.33,0,0,0,.3.09l4.42-1a.3.3,0,0,0,.24-.37.26.26,0,0,0-.09-.16l-2.28-2.22a.34.34,0,0,0-.29-.08l-4.17,1a.33.33,0,0,0-.27.37A.38.38,0,0,0,240.73,671.83Z" fill="#464a5f"/><path d="M234,673.13l2.07,2.19a.3.3,0,0,0,.28.09l4.47-1A.31.31,0,0,0,241,674a.35.35,0,0,0-.08-.13l-2.32-2.19a.27.27,0,0,0-.27-.07l-4.21,1a.29.29,0,0,0-.22.35A.33.33,0,0,0,234,673.13Z" fill="#464a5f"/><path d="M247,666.29l2,2.15a.31.31,0,0,0,.3.09l4.43-1a.31.31,0,0,0,.23-.37.26.26,0,0,0-.09-.16l-2.26-2.17a.29.29,0,0,0-.29-.08l-4.16,1a.3.3,0,0,0-.26.35A.3.3,0,0,0,247,666.29Z" fill="#464a5f"/><path d="M240.92,667.7l2,2.16a.31.31,0,0,0,.3.09l4.42-1a.32.32,0,0,0,.24-.39.46.46,0,0,0-.09-.15l-2.29-2.16a.31.31,0,0,0-.29-.07l-4.17,1a.31.31,0,0,0-.2.39A.26.26,0,0,0,240.92,667.7Z" fill="#464a5f"/><path d="M234.32,669.09l2,2.16a.33.33,0,0,0,.3.09l4.43-1a.31.31,0,0,0,.23-.37.26.26,0,0,0-.09-.16l-2.29-2.16a.34.34,0,0,0-.29-.08l-4.16,1a.32.32,0,0,0-.2.41A.41.41,0,0,0,234.32,669.09Z" fill="#464a5f"/><path d="M227.66,670.64l2.06,2.19a.3.3,0,0,0,.28.09l4.47-1a.29.29,0,0,0,.23-.34.26.26,0,0,0-.09-.16l-2.29-2.23a.29.29,0,0,0-.28-.07l-4.21,1a.28.28,0,0,0-.28.3A.28.28,0,0,0,227.66,670.64Z" fill="#464a5f"/><path d="M253.32,664.83l2,2.16a.31.31,0,0,0,.3.09l4.42-1a.33.33,0,0,0,.23-.39.38.38,0,0,0-.09-.15l-2.28-2.16a.31.31,0,0,0-.29-.07l-4.17,1a.3.3,0,0,0-.22.36A.29.29,0,0,0,253.32,664.83Z" fill="#464a5f"/><path d="M242.65,663.58l2,2.15a.31.31,0,0,0,.3.09l4.43-1a.31.31,0,0,0,.23-.37.26.26,0,0,0-.09-.16l-2.29-2.16a.29.29,0,0,0-.29-.08l-4.16,1a.3.3,0,0,0-.22.38A.29.29,0,0,0,242.65,663.58Z" fill="#464a5f"/><path d="M266.2,654.15l2.23,2.37a.19.19,0,0,0,.18,0l4.73-1.09a.19.19,0,0,0,.13-.23.19.19,0,0,0-.05-.09l-2.51-2.28a.17.17,0,0,0-.17,0l-4.42,1a.19.19,0,0,0-.17.21A.16.16,0,0,0,266.2,654.15Z" fill="#464a5f"/><path d="M271.91,652.89l2.23,2.37a.17.17,0,0,0,.18,0l4.72-1.09a.19.19,0,0,0,.14-.23.2.2,0,0,0-.05-.09l-2.51-2.37a.19.19,0,0,0-.18,0L272,652.62a.19.19,0,0,0-.1.25Z" fill="#464a5f"/><path d="M277.77,651.54l2,2.2a.2.2,0,0,0,.18.06l4.4-1.2a.19.19,0,0,0,.14-.23.21.21,0,0,0-.06-.1l-2.28-1.92a.15.15,0,0,0-.16,0l-4.16.91a.19.19,0,0,0-.07.26Z" fill="#464a5f"/><path d="M283.92,653.59l2,2.2a.21.21,0,0,0,.19,0l4.4-1.2a.18.18,0,0,0,.14-.21.21.21,0,0,0-.07-.11l-2.26-1.87a.22.22,0,0,0-.16,0l-4.16.92a.18.18,0,0,0-.1.23Z" fill="#464a5f"/><path d="M283.18,657.58l1.93,2.09a.23.23,0,0,0,.25.07l4.24-1.16a.26.26,0,0,0,.18-.31.32.32,0,0,0-.08-.12l-2.16-1.82a.26.26,0,0,0-.21,0l-4,.89a.24.24,0,0,0-.18.29Z" fill="#464a5f"/><path d="M278.17,662.66l1.93,2.08a.26.26,0,0,0,.25.08l4.24-1.16a.26.26,0,0,0,.17-.32.24.24,0,0,0-.07-.12l-2.16-1.81a.26.26,0,0,0-.21-.06l-4,.89a.26.26,0,0,0-.22.28A.27.27,0,0,0,278.17,662.66Z" fill="#464a5f"/><path d="M272.15,664.23l1.93,2.09a.23.23,0,0,0,.25.07l4.24-1.16a.26.26,0,0,0,.18-.31.32.32,0,0,0-.08-.12L276.51,663a.26.26,0,0,0-.21,0l-4,.89a.24.24,0,0,0-.18.29Z" fill="#464a5f"/><path d="M283.84,661.18l1.93,2.08a.23.23,0,0,0,.25.07l4.24-1.15a.26.26,0,0,0,.17-.32.24.24,0,0,0-.07-.12l-2.16-1.82a.23.23,0,0,0-.21,0l-4,.89a.26.26,0,0,0-.22.28A.27.27,0,0,0,283.84,661.18Z" fill="#464a5f"/><path d="M282.85,665.68l2.92,2.61a.26.26,0,0,0,.24.06l4.21-1.19a.25.25,0,0,0,.16-.33.26.26,0,0,0-.07-.11L287.18,664a.28.28,0,0,0-.25,0l-4,1.33a.26.26,0,0,0-.1.35Z" fill="#464a5f"/><path d="M272.67,656.43l2,2.2a.19.19,0,0,0,.19,0l4.4-1.2a.19.19,0,0,0,.12-.24.22.22,0,0,0-.05-.08l-2.27-1.92a.22.22,0,0,0-.16,0l-4.17.92a.18.18,0,0,0-.08.24Z" fill="#464a5f"/><path d="M267,657.83l1.93,2.08a.23.23,0,0,0,.25.07l4.24-1.15a.26.26,0,0,0,.17-.32.24.24,0,0,0-.07-.12l-2.18-1.81a.26.26,0,0,0-.21,0l-4,.89a.25.25,0,0,0-.15.32S267,657.82,267,657.83Z" fill="#464a5f"/><path d="M265.81,661.83l1.93,2.09a.29.29,0,0,0,.25.07l4.25-1.16a.25.25,0,0,0,.18-.3.23.23,0,0,0-.09-.14l-2.15-1.81a.29.29,0,0,0-.22-.06l-4,.89a.26.26,0,0,0-.2.31A.16.16,0,0,0,265.81,661.83Z" fill="#464a5f"/><path d="M259.82,663.32l1.93,2.09a.29.29,0,0,0,.25.07l4.25-1.16a.25.25,0,0,0,.18-.3.23.23,0,0,0-.09-.14l-2.15-1.81A.29.29,0,0,0,264,662l-4,.89a.26.26,0,0,0-.2.31A.16.16,0,0,0,259.82,663.32Z" fill="#464a5f"/><path d="M260.89,659.19l1.93,2.09a.28.28,0,0,0,.26.07l4.24-1.16a.25.25,0,0,0,.09-.43l-2.15-1.82a.25.25,0,0,0-.22-.05l-4,.88a.26.26,0,0,0-.2.31A.16.16,0,0,0,260.89,659.19Z" fill="#464a5f"/><path d="M265.91,665.59l1.93,2.08a.26.26,0,0,0,.25.08l4.24-1.16a.26.26,0,0,0,.17-.32.24.24,0,0,0-.07-.12l-2.11-1.81a.26.26,0,0,0-.21-.06l-4,.89a.25.25,0,0,0-.27.23A.26.26,0,0,0,265.91,665.59Z" fill="#464a5f"/><path d="M260,667.18l1.83,2a.32.32,0,0,0,.32.09l4.09-1.12a.3.3,0,0,0,.22-.38.27.27,0,0,0-.1-.16l-2.06-1.78a.33.33,0,0,0-.27-.07l-3.89.86a.33.33,0,0,0-.25.38A.34.34,0,0,0,260,667.18Z" fill="#464a5f"/><path d="M278.47,655l2,2.2a.21.21,0,0,0,.19,0l4.4-1.2a.19.19,0,0,0,.12-.24.22.22,0,0,0-.05-.08l-2.24-1.83a.25.25,0,0,0-.17,0l-4.16.92A.17.17,0,0,0,278.47,655Z" fill="#464a5f"/><path d="M277.66,658.94l1.93,2.08a.26.26,0,0,0,.25.08l4.25-1.16a.25.25,0,0,0,.18-.3.23.23,0,0,0-.09-.14L282,657.69a.29.29,0,0,0-.22-.06l-4,.89a.26.26,0,0,0-.2.31A.16.16,0,0,0,277.66,658.94Z" fill="#464a5f"/><path d="M271.89,660.51l1.93,2.09a.26.26,0,0,0,.26.07l4.24-1.15a.25.25,0,0,0,.16-.33.26.26,0,0,0-.07-.11l-2.15-1.82a.28.28,0,0,0-.22,0l-4,.89a.25.25,0,0,0-.17.31S271.88,660.49,271.89,660.51Z" fill="#464a5f"/><path d="M248.7,658.24l2.12,2.26a.26.26,0,0,0,.24.07l4.57-1.06a.25.25,0,0,0,.2-.29.25.25,0,0,0-.08-.14l-2.43-2.25a.24.24,0,0,0-.23-.06l-4.27,1.06a.26.26,0,0,0-.18.31A.27.27,0,0,0,248.7,658.24Z" fill="#464a5f"/><path d="M242.59,659.73l2,2.16a.33.33,0,0,0,.3.09l4.42-1a.3.3,0,0,0,.24-.37.26.26,0,0,0-.09-.16l-2.29-2.16a.34.34,0,0,0-.29-.08l-4.17,1a.32.32,0,0,0-.19.41A.41.41,0,0,0,242.59,659.73Z" fill="#464a5f"/><path d="M236.06,664.83l1.51,2.43a.31.31,0,0,0,.33.14l5.12-1.14a.32.32,0,0,0,.24-.39l0-.1-1.69-2.35a.31.31,0,0,0-.32-.12l-4.94,1.06a.32.32,0,0,0-.23.39S236.05,664.8,236.06,664.83Z" fill="#464a5f"/><path d="M202.55,665.7l5-1.17a.28.28,0,0,1,.3.11l.89,1.16a.3.3,0,0,1-.06.42l-.11,0-5.23,1.22a.33.33,0,0,1-.33-.14l-.7-1.22a.3.3,0,0,1,.1-.4Z" fill="#464a5f"/><path d="M209.49,664.18l5.06-1.16a.29.29,0,0,1,.3.1l.88,1.17a.29.29,0,0,1,0,.41l-.11,0L210.32,666a.29.29,0,0,1-.32-.14l-.7-1.21a.31.31,0,0,1,.11-.41Z" fill="#464a5f"/><path d="M216.21,662.74l5-1.17a.31.31,0,0,1,.3.11l.89,1.17a.3.3,0,0,1,0,.41l-.12,0-5.23,1.22a.29.29,0,0,1-.32-.14l-.71-1.22a.3.3,0,0,1,.1-.4Z" fill="#464a5f"/><path d="M222.73,661.25l5-1.17a.31.31,0,0,1,.3.11l.89,1.17a.3.3,0,0,1,0,.41l-.12.05L223.52,663a.3.3,0,0,1-.32-.14l-.71-1.21a.31.31,0,0,1,.12-.41Z" fill="#464a5f"/><path d="M229.4,659.83l5-1.16a.31.31,0,0,1,.32.12l.86,1.13a.3.3,0,0,1-.06.43.24.24,0,0,1-.11.06l-5.19,1.21a.31.31,0,0,1-.34-.14l-.69-1.19a.3.3,0,0,1,.11-.42Z" fill="#464a5f"/><path d="M235.85,658.43l5-1.16a.33.33,0,0,1,.32.12l.86,1.13a.33.33,0,0,1-.07.45l-.11,0-5.19,1.21a.32.32,0,0,1-.34-.15l-.69-1.18a.33.33,0,0,1,.12-.44Z" fill="#464a5f"/><path d="M242.17,657.12,246.8,656a.3.3,0,0,1,.3.08l.9,1a.31.31,0,0,1,0,.45.24.24,0,0,1-.12.07l-4.53,1.1a.33.33,0,0,1-.3-.09l-1-1a.32.32,0,0,1,0-.45Z" fill="#464a5f"/><path d="M248.32,655.71l4.77-1.16a.22.22,0,0,1,.24.07l1,1a.24.24,0,0,1,0,.35.19.19,0,0,1-.12.07l-4.71,1.18a.22.22,0,0,1-.24-.06l-1.06-1.07a.25.25,0,0,1,.06-.35Z" fill="#464a5f"/><path d="M254.43,654.26l4.76-1.16a.29.29,0,0,1,.25.07l1,1a.24.24,0,0,1,0,.35.19.19,0,0,1-.12.07l-4.72,1.24a.26.26,0,0,1-.24-.06l-1-1.08a.27.27,0,0,1,0-.37A.24.24,0,0,1,254.43,654.26Z" fill="#464a5f"/><path d="M260.55,653l4.77-1.18a.26.26,0,0,1,.24.07l1,1a.24.24,0,0,1,0,.35.19.19,0,0,1-.12.07l-4.71,1.18a.24.24,0,0,1-.24-.07l-1.05-1.07a.25.25,0,0,1,.09-.34Z" fill="#464a5f"/><path d="M266.32,651.62l4.91-1.2a.2.2,0,0,1,.18.06l1.1,1.15a.2.2,0,0,1,0,.27l-.08,0-4.86,1.22a.16.16,0,0,1-.17,0l-1.16-1.18a.18.18,0,0,1,0-.25A.21.21,0,0,1,266.32,651.62Z" fill="#464a5f"/><path d="M272.21,650.37l4.91-1.2a.19.19,0,0,1,.18,0l1.1,1.16a.2.2,0,0,1,0,.27l-.08,0-4.85,1.22a.17.17,0,0,1-.14,0l-1.16-1.18a.19.19,0,0,1,0-.27Z" fill="#464a5f"/><path d="M278.05,649l4.55-1a.2.2,0,0,1,.19.06l.87,1.08a.17.17,0,0,1,0,.25.14.14,0,0,1-.08.05l-4.25,1.1a.19.19,0,0,1-.19,0L278,649.34a.19.19,0,0,1,0-.27Z" fill="#464a5f"/><path d="M283.63,647.75l4.55-1a.18.18,0,0,1,.18.07l.88,1.08a.19.19,0,0,1,0,.27l-.06,0-4.28,1.12a.18.18,0,0,1-.18-.05l-1.15-1.17a.19.19,0,0,1-.06-.26A.19.19,0,0,1,283.63,647.75Z" fill="#464a5f"/><path d="M206.09,671.72l1.67,2.39a.31.31,0,0,0,.31.12l8.75-2a.3.3,0,0,0,.22-.36.37.37,0,0,0,0-.11l-1.86-2.44a.31.31,0,0,0-.3-.11l-8.57,2.1a.29.29,0,0,0-.18.38Z" fill="#464a5f"/><path d="M208.73,674.92l1.68,2.67a.3.3,0,0,0,.32.13l10.59-2.51a.28.28,0,0,0,.22-.35.34.34,0,0,0-.06-.12l-2.1-2.59a.27.27,0,0,0-.29-.1l-10.16,2.43a.3.3,0,0,0-.23.36S208.72,674.89,208.73,674.92Z" fill="#464a5f"/><path d="M211.13,678.45l2.05,2.89a.27.27,0,0,0,.3.12l14-3.46a.3.3,0,0,0,.21-.37.31.31,0,0,0-.05-.1l-2.25-2.9a.29.29,0,0,0-.3-.1L211.32,678a.3.3,0,0,0-.24.33A.33.33,0,0,0,211.13,678.45Z" fill="#464a5f"/><path d="M243.18,675.29l2.56,3.08a.29.29,0,0,0,.31.11l30.81-7.65a.32.32,0,0,0,.22-.4.35.35,0,0,0-.08-.13l-3.14-3.12a.3.3,0,0,0-.3-.08l-30.24,7.73a.31.31,0,0,0-.17.4Z" fill="#464a5f"/><path d="M275,667.32l3,3a.24.24,0,0,0,.24.07l6.32-1.69a.26.26,0,0,0,.17-.32.24.24,0,0,0-.06-.11l-3.13-3.06a.24.24,0,0,0-.24-.06l-6.21,1.71a.25.25,0,0,0-.21.29A.3.3,0,0,0,275,667.32Z" fill="#464a5f"/><path d="M290.22,665.41l1.37,1.45a.19.19,0,0,0,.19,0l4.67-1.25a.19.19,0,0,0,.13-.23.19.19,0,0,0-.05-.09l-1.66-1.51a.19.19,0,0,0-.18,0l-4.37,1.28a.19.19,0,0,0-.15.21A.41.41,0,0,0,290.22,665.41Z" fill="#464a5f"/><path d="M294.2,662.3l1.64,1.72a.23.23,0,0,0,.2,0l4.29-1.49a.18.18,0,0,0,.11-.24.22.22,0,0,0-.05-.08l-1.6-1.44a.17.17,0,0,0-.17,0l-4.3,1.22a.18.18,0,0,0-.16.21A.18.18,0,0,0,294.2,662.3Z" fill="#464a5f"/><path d="M297.37,665.28l-1.18-1a.19.19,0,0,1-.05-.25.23.23,0,0,1,.1-.07l4.28-1.49a.19.19,0,0,1,.19,0l1.34,1.29a.2.2,0,0,1,0,.28l-.07,0-4.43,1.14A.18.18,0,0,1,297.37,665.28Z" fill="#464a5f"/><path d="M301.75,662.64c.37.35,1,1.06,1.26,1.29a.21.21,0,0,0,.19,0l4.45-1.2a.19.19,0,0,0,.13-.23.19.19,0,0,0,0-.09L306.15,661a.21.21,0,0,0-.19,0l-4.14,1.33a.19.19,0,0,0-.12.24A.22.22,0,0,0,301.75,662.64Z" fill="#464a5f"/><path d="M289.26,659.83l2.38,2.3a.24.24,0,0,0,.18,0l11.48-3a.18.18,0,0,0,.14-.21.21.21,0,0,0-.07-.11l-2.78-2.31a.25.25,0,0,0-.17,0l-11.08,3a.19.19,0,0,0-.11.23Z" fill="#464a5f"/><path d="M288.48,656.28l2.46,2.18a.15.15,0,0,0,.16,0l8.65-2a.18.18,0,0,0,.14-.21.21.21,0,0,0-.07-.11L297,653.77a.17.17,0,0,0-.17,0L288.55,656a.2.2,0,0,0-.09.25Z" fill="#464a5f"/><path d="M289.32,652.51l2.33,2.08a.22.22,0,0,0,.16,0l4.44-1a.19.19,0,0,0,.14-.23.21.21,0,0,0-.06-.1l-2.76-2.38a.19.19,0,0,0-.18,0l-4,1.29a.18.18,0,0,0-.14.23A.19.19,0,0,0,289.32,652.51Z" fill="#464a5f"/><path d="M283.2,650.44l2.25,2a.22.22,0,0,0,.17,0l7-1.67a.18.18,0,0,0,.14-.21.21.21,0,0,0-.07-.11L290,648.25a.17.17,0,0,0-.17,0l-6.6,1.87a.19.19,0,0,0-.08.26Z" fill="#464a5f"/><path d="M271.17,398l-3.24,5.95s19.46,5.68,26.49,3.78,29.74-17.3,29.74-17.3Z" fill="none"/><path d="M261.24,406.91s3.45,10.55,11.15,12.57Z" fill="none"/><path d="M273.4,409.14s-.81,8.11,4.87,10.14S273.4,409.14,273.4,409.14Z" fill="none"/><path d="M466.18,526.83l-.74-.34A33.18,33.18,0,0,1,487.08,510l.18.79A32.31,32.31,0,0,0,466.18,526.83Z" opacity="0.1" style="isolation:isolate"/><path d="M451.57,522l-.72-.36c4.89-9.78,27.67-16.42,28.63-16.7l.23.78C479.48,505.77,456.32,512.52,451.57,522Z" opacity="0.1" style="isolation:isolate"/><polygon points="448.07 515.68 455.17 519.43 451.72 524.4 445.74 521.56 448.07 515.68" opacity="0.1" style="isolation:isolate"/><path d="M428.15,412.28l12.71,5.88h0L432,437.22a7,7,0,0,1-9.3,3.41h0a7,7,0,0,1-3.41-9.29l8.82-19.06Z" fill="#ffb9b9"/><path d="M552.62,145.92h0a51,51,0,0,1,51,51v57h-102v-57a51,51,0,0,1,51-51Z" fill="#2f2e41"/><polygon points="514.62 682.92 503.62 680.92 495.62 636.92 518.12 637.42 514.62 682.92" fill="#ffb9b9"/><polygon points="636.12 708.42 624.84 713.63 606.84 661.63 626.12 658.42 636.12 708.42" fill="#ffb9b9"/><path d="M631.12,661.42l-29.5,1.51-80.5-194.51-2.19,175.16-28.31-3.65c-19.95-109-36.47-205.85-10.5-266.51l88,7Z" fill="#2f2e41"/><path d="M496.94,713.58,485.49,713a3,3,0,0,1-2.42-4.41l17.43-30.91,15.3,1.27,2.36,11a11.18,11.18,0,0,1-4,11.13L506.62,707A9.64,9.64,0,0,1,496.94,713.58Z" fill="#2f2e41"/><path d="M652.91,738.31,643,741.7a4,4,0,0,1-3.9-.73l-17.21-14.59a10.65,10.65,0,0,1-3.29-11.26l2.16-7,16.38-3.17L655,732.32a4.05,4.05,0,0,1-2.06,6Z" fill="#2f2e41"/><circle cx="545.62" cy="191.92" r="34" fill="#ffb9b9"/><polygon points="580.12 242.42 540.12 249.42 536.12 217.42 567.12 213.42 580.12 242.42" fill="#ffb9b9"/><path d="M580.12,391.42l-103-10c5.05-55,22-103.42,57-142l50-4Z" fill="#3f3d56"/><polygon points="442.62 421.93 421.62 414.93 457.86 341.66 512.12 253.42 534.12 239.42 485.45 348.5 442.62 421.93" fill="#3f3d56"/><polygon points="568.62 180.92 506.62 192.92 516.62 161.92 552.62 153.92 580.62 163.92 568.62 180.92" fill="#2f2e41"/><circle cx="440.49" cy="338.95" r="93.69" fill="#ac5c68"/><polygon points="548.83 446 492.15 431.18 435.46 416.35 476.64 374.67 517.82 333 533.33 389.5 548.83 446" fill="#ac5c68"/><circle cx="440.6" cy="338" r="33.61" fill="#fff"/><path d="M540.15,435.28l12.71,5.88h0L544,460.22a7,7,0,0,1-9.3,3.41h0a7,7,0,0,1-3.41-9.29l8.82-19.06Z" fill="#ffb9b9"/><path d="M553.62,447.93l-18-11,9.44-64.25,39.06-132.26,7.42,2.83A31.93,31.93,0,0,1,611.06,281l-25.32,98.78Z" fill="#3f3d56"/></svg>